<svg id="Layer_1" data-name="Layer 1" xmlns="http://www.w3.org/2000/svg" xmlns:xlink="http://www.w3.org/1999/xlink" viewBox="0 0 595.28 841.89"><defs><style>.cls-1{fill:url(#linear-gradient);}.cls-2{fill:#193661;}.cls-3{fill:url(#linear-gradient-2);}.cls-4{fill:url(#linear-gradient-3);}.cls-5{fill:#4d96ce;}.cls-6{fill:#1e386a;}.cls-7{fill:url(#linear-gradient-4);}.cls-8{fill:#193965;}.cls-9{fill:url(#linear-gradient-5);}.cls-10{fill:url(#linear-gradient-6);}</style><linearGradient id="linear-gradient" x1="417.96" y1="212.03" x2="492.31" y2="212.03" gradientUnits="userSpaceOnUse"><stop offset="0.09" stop-color="#c9ebfc"/><stop offset="0.64" stop-color="#62a2d5"/><stop offset="1" stop-color="#358aca"/></linearGradient><linearGradient id="linear-gradient-2" x1="364.48" y1="221.51" x2="429.13" y2="221.51" gradientUnits="userSpaceOnUse"><stop offset="0" stop-color="#c9ebfc"/><stop offset="0.36" stop-color="#62a2d5"/><stop offset="0.57" stop-color="#61a1d4"/><stop offset="1" stop-color="#358aca"/></linearGradient><linearGradient id="linear-gradient-3" x1="126.72" y1="301.74" x2="363.21" y2="301.74" xlink:href="#linear-gradient-2"/><linearGradient id="linear-gradient-4" x1="253.83" y1="494.89" x2="492.31" y2="494.89" xlink:href="#linear-gradient-2"/><linearGradient id="linear-gradient-5" x1="190.67" y1="571.73" x2="257.5" y2="571.73" xlink:href="#linear-gradient-2"/><linearGradient id="linear-gradient-6" x1="126.69" y1="585.92" x2="201.11" y2="585.92" xlink:href="#linear-gradient-2"/></defs><title>logo rev</title><path class="cls-1" d="M418,137.23,454.7,114s80.5,82.53,5.94,196.05Z"/><path class="cls-2" d="M443.71,245.65s-5.94,24.67-33.31,55.46c0,0,43.76,3.06,49.16,12.25S443.71,245.65,443.71,245.65Z"/><path class="cls-3" d="M364.48,175.05l35.11-26.47s80,88.06-23.23,145.87C376.36,294.45,399.59,197.74,364.48,175.05Z"/><path class="cls-2" d="M373.66,297.81,224,409.65s-45.39,11.88-31.34-35.12c0,0,193-123.06,191.19-143.19C383.86,231.34,382.84,295.11,373.66,297.81Z"/><path class="cls-4" d="M348.81,186.4l10.8,15.66s8.11,17.26,0,25.92S177,360.36,177,360.36s-43.22,13.51-49.16,56.73c0,0-10.27-76.72,31.33-95.09Z"/><path class="cls-2" d="M177,360.36s-37.28,4.86-49.16,56.73c0,0,1.62,29.71,35.12,38.36,0,0,14.58,16.75,77.79-35.12,0,0-99.4,7.57-61.59-60"/><path class="cls-5" d="M389.15,326s-59.79,24.86-148.4,94.37c0,0-30.79,36-84.37,34.58,0,0,31.34,34.72,81.75,17.57,5.1-2.81,10.08-5.84,15.14-8.73L393.47,371l3.33-2.06,38.62-23.88s18.88-4.32,25,0S438.49,318,389.15,326Z"/><path class="cls-6" d="M391.76,370.57s45-41,75.95-23c0,0,41.79,28.31,11.44,67,0,0-24.65,19.14-43.23,26.9C435.92,441.44,468.34,390.88,391.76,370.57Z"/><path class="cls-7" d="M271.55,607.8,254.8,587.27s-7-17.28,16.75-29.17L435.92,441.44S498.15,412.23,490.2,382l2.11,47.55s1.4,29.17-51.33,65.37Z"/><path class="cls-8" d="M234.27,592.14S203.48,537,257,491.65l143.17-99.43S439,383.05,426.07,423L253.83,547.29S234.81,550.54,234.27,592.14Z"/><path class="cls-9" d="M251.56,626.29l-32.42,26.48s-84.82-86.45,38.36-162.08C257.5,490.69,198.07,552.28,251.56,626.29Z"/><path class="cls-8" d="M159.71,485.7s-19.45,78.88,12.43,125.89c0,0-16.21-78.34,37.28-114Z"/><path class="cls-10" d="M201.11,657.51s-70.24-76.72-40-171.81c0,0-42.76,50.25-33,111.84,0,0,8.11,59.43,40.54,88.6Z"/></svg>